<svg width="20" height="20" viewBox="0 0 20 20" fill="none" xmlns="http://www.w3.org/2000/svg">
<path d="M5.5 20C3.95411 19.9932 2.59326 18.9258 2.145 17.3685H0V15.2633H2.145C2.6599 13.4454 4.40204 12.3362 6.1707 12.7002C7.93936 13.0642 9.15633 14.7824 8.98285 16.6705C8.80937 18.5587 7.30215 19.9995 5.5 20ZM5.5 14.737C4.67157 14.737 4 15.4439 4 16.3159C4 17.1879 4.67157 17.8948 5.5 17.8948C6.32843 17.8948 7 17.1879 7 16.3159C7 15.4439 6.32843 14.737 5.5 14.737ZM20 17.3685H10V15.2633H20V17.3685ZM14.5 13.6844C12.6979 13.6839 11.1906 12.243 11.0172 10.3549C10.8437 8.46676 12.0606 6.74859 13.8293 6.3846C15.598 6.0206 17.3401 7.12977 17.855 8.94765H20V11.0529H17.855C17.4067 12.6102 16.0459 13.6776 14.5 13.6844ZM14.5 8.42135C13.6716 8.42135 13 9.12825 13 10.0003C13 10.8723 13.6716 11.5792 14.5 11.5792C15.3284 11.5792 16 10.8723 16 10.0003C16 9.12825 15.3284 8.42135 14.5 8.42135ZM10 11.0529H0V8.94765H10V11.0529ZM7.5 7.36874C5.69785 7.36826 4.19063 5.92741 4.01715 4.03927C3.84367 2.15113 5.06064 0.432965 6.8293 0.0689688C8.59796 -0.295027 10.3401 0.814144 10.855 2.63202H20V4.73723H10.855C10.4065 6.29433 9.04578 7.3616 7.5 7.36874ZM7.5 2.10572C6.68198 2.10688 6.01568 2.79773 6.00223 3.65867C5.98878 4.51961 6.63315 5.23314 7.45069 5.26261C8.26824 5.29208 8.95746 4.62662 9 3.76673V4.07198V3.68463C9 2.81262 8.32843 2.10572 7.5 2.10572ZM3 4.73723H0V2.63202H3V4.73723Z" fill="white"/>
</svg>
