<svg width="16" height="16" viewBox="0 0 16 16" fill="none" xmlns="http://www.w3.org/2000/svg">
<path d="M8 14C7.15795 13.2818 6.37745 12.4943 5.66666 11.646C4.6 10.372 3.33333 8.47467 3.33333 6.66667C3.33238 4.77837 4.46949 3.0756 6.21404 2.35293C7.95859 1.63027 9.96671 2.03016 11.3013 3.366C12.179 4.23974 12.6706 5.42826 12.6667 6.66667C12.6667 8.47467 11.4 10.372 10.3333 11.646C9.62254 12.4943 8.84204 13.2818 8 14ZM8 4.66667C7.28546 4.66667 6.62521 5.04787 6.26795 5.66667C5.91068 6.28547 5.91068 7.04787 6.26795 7.66667C6.62521 8.28547 7.28546 8.66667 8 8.66667C9.10457 8.66667 10 7.77124 10 6.66667C10 5.5621 9.10457 4.66667 8 4.66667Z" fill="#2E3A59"/>
</svg>
