<svg width="106" height="106" viewBox="0 0 106 106" fill="none" xmlns="http://www.w3.org/2000/svg">
<path fill-rule="evenodd" clip-rule="evenodd" d="M35.0849 40.2857C30.947 41.0058 28.194 44.919 28.9141 49.0569L31.5145 63.999C31.8735 66.0621 30.4921 68.0256 28.429 68.3846C26.366 68.7437 24.4025 67.3623 24.0434 65.2992L21.443 50.3571C20.0048 42.0931 25.5207 34.2528 33.7847 32.8147L41.2558 31.5145C43.3189 31.1554 45.2824 32.5368 45.6414 34.5999C46.0004 36.6629 44.6191 38.6265 42.556 38.9855L35.0849 40.2857Z" fill="#AFAFAF"/>
<path d="M30.2143 56.5279L41.4208 54.5776C43.4754 54.22 45.4489 55.6085 45.8065 57.663L47.7567 68.8696C48.1143 70.9241 46.7259 72.8976 44.6713 73.2552L33.4648 75.2055C31.4102 75.563 29.4367 74.1746 29.0791 72.1201L27.1289 60.9135C26.7713 58.859 28.1597 56.8854 30.2143 56.5279Z" fill="#AFAFAF"/>
<path fill-rule="evenodd" clip-rule="evenodd" d="M23.3933 61.5636C22.6767 57.4459 25.4466 53.5089 29.5642 52.7923L40.7707 50.842C44.8884 50.1254 48.8254 52.8952 49.542 57.0129L51.4923 68.2195C52.2089 72.3371 49.4391 76.2741 45.3214 76.9907L34.1149 78.941C29.9973 79.6576 26.0602 76.8878 25.3436 72.7701L23.3933 61.5636ZM42.0709 58.3131L30.8644 60.2634L32.8147 71.4699L44.0212 69.5196L42.0709 58.3131Z" fill="#AFAFAF"/>
<path fill-rule="evenodd" clip-rule="evenodd" d="M68.7046 34.4349C64.5668 35.155 61.8136 39.0682 62.5338 43.2061L65.1342 58.1482C65.4932 60.2113 64.1119 62.1747 62.0487 62.5338C59.9856 62.8928 58.0222 61.5115 57.6631 59.4484L55.0627 44.5063C53.6245 36.2423 59.1403 28.402 67.4044 26.9638L74.8755 25.6636C76.9386 25.3046 78.902 26.686 79.2611 28.7491C79.6201 30.8121 78.2388 32.7756 76.1756 33.1347L68.7046 34.4349Z" fill="#AFAFAF"/>
<path d="M63.834 50.6771L75.0405 48.7268C77.0951 48.3692 79.0686 49.7576 79.4262 51.8122L81.3764 63.0187C81.734 65.0733 80.3456 67.0468 78.291 67.4044L67.0845 69.3546C65.0299 69.7122 63.0564 68.3238 62.6988 66.2692L60.7485 55.0627C60.391 53.0081 61.7794 51.0346 63.834 50.6771Z" fill="#AFAFAF"/>
<path fill-rule="evenodd" clip-rule="evenodd" d="M57.013 55.7127C56.2964 51.5951 59.0662 47.6581 63.1839 46.9415L74.3904 44.9912C78.5081 44.2746 82.4451 47.0444 83.1617 51.1621L85.1119 62.3686C85.8285 66.4863 83.0588 70.4233 78.9411 71.1399L67.7345 73.0901C63.6169 73.8067 59.6799 71.037 58.9633 66.9193L57.013 55.7127ZM75.6906 52.4623L64.4841 54.4125L66.4344 65.6191L77.6409 63.6688L75.6906 52.4623Z" fill="#AFAFAF"/>
</svg>
