<svg width="24" height="24" viewBox="0 0 24 24" fill="none" xmlns="http://www.w3.org/2000/svg">
<path d="M18.677 19.607L12.962 13.891C10.4197 15.6984 6.91644 15.2563 4.90288 12.8739C2.88931 10.4915 3.03716 6.96358 5.243 4.75799C7.44826 2.55144 10.9765 2.40295 13.3594 4.4164C15.7423 6.42986 16.1846 9.93344 14.377 12.476L20.092 18.192L18.678 19.606L18.677 19.607ZM9.485 4.99997C7.58871 4.99955 5.95269 6.33066 5.56748 8.18742C5.18226 10.0442 6.15371 11.9163 7.89368 12.6702C9.63365 13.4242 11.6639 12.8528 12.7552 11.302C13.8466 9.75126 13.6991 7.64731 12.402 6.26399L13.007 6.86399L12.325 6.18399L12.313 6.17199C11.5648 5.41917 10.5464 4.99712 9.485 4.99997Z" fill="url(#paint0_linear)"/>
<defs>
<linearGradient id="paint0_linear" x1="11.7887" y1="2.99936" x2="11.7887" y2="19.607" gradientUnits="userSpaceOnUse">
<stop stop-color="#2EA6D0"/>
<stop offset="1" stop-color="#824D90"/>
</linearGradient>
</defs>
</svg>
